<?xml version="1.0" encoding="UTF-8"?>


<svg xmlns="http://www.w3.org/2000/svg">			
	<symbol id="linkedin" viewBox="0 0 100 100">
		<path d="M0 30.8L23.1 30.8 23.1 100 0 100 0 30.8ZM34.6 30.8L57.7 30.8 57.7 39.2C65 34.8 73.7 30.8 80.8 30.8 96.2 30.8 100 46.2 100 46.2L100 100 76.9 100 76.9 53.8C73.9 44.9 66.3 45.2 57.7 53L57.7 100 34.6 100 34.6 30.8ZM11.5 0C17.9 0 23.1 5.2 23.1 11.5 23.1 17.9 17.9 23.1 11.5 23.1 5.2 23.1 0 17.9 0 11.5 0 5.2 5.2 0 11.5 0Z"/>
	</symbol>

	<symbol id="doc-icon" viewBox="0 0 100 100">
		<path d="M84.3199853,0 L16.5294118,0 C14.0280441,0 12,2.03522727 12,4.54545455 L12,94.5443182 C12,97.0545455 14.0280441,99.0897727 16.5294118,99.0897727 L84.3199853,99.0897727 C86.8213529,99.0897727 88.8493971,97.0545455 88.8493971,94.5443182 L88.8493971,4.54545455 C88.8493971,2.03522727 86.8213529,0 84.3199853,0 Z M79.7905735,89.9988636 L21.0588235,89.9988636 L21.0588235,9.09090909 L79.7905735,9.09090909 L79.7905735,89.9988636 Z" id="Shape"></path>
		<path d="M35.7001471,64.5090909 L49.05625,64.5090909 C51.2450882,64.5090909 53.0194853,62.7272727 53.0194853,60.5318182 C53.0194853,58.3329545 51.2450882,56.5545455 49.05625,56.5545455 L35.7001471,56.5545455 C33.5113088,56.5545455 31.7369118,58.3329545 31.7369118,60.5318182 C31.7369118,62.7261364 33.5113088,64.5090909 35.7001471,64.5090909 Z" id="Shape"></path>
		<path d="M36.3274706,46.6568182 L63.2208529,46.6568182 C65.4108235,46.6568182 67.1840882,44.8761364 67.1840882,42.6795455 C67.1840882,40.4829545 65.4108235,38.7022727 63.2208529,38.7022727 L36.3274706,38.7022727 C34.1386324,38.7022727 32.3642353,40.4829545 32.3642353,42.6795455 C32.3642353,44.8761364 34.1397647,46.6568182 36.3274706,46.6568182 Z" id="Shape"></path>
		<path d="M36.3274706,28.8045455 L63.2208529,28.8045455 C65.4108235,28.8045455 67.1840882,27.0238636 67.1840882,24.8272727 C67.1840882,22.6306818 65.4108235,20.85 63.2208529,20.85 L36.3274706,20.85 C34.1386324,20.85 32.3642353,22.6306818 32.3642353,24.8272727 C32.3642353,27.0238636 34.1397647,28.8045455 36.3274706,28.8045455 Z" id="Shape"></path>
		<path d="M60.2699412,57.7204545 C59.5225882,58.4579545 59.1036176,59.4829545 59.1036176,60.5295455 C59.1036176,61.575 59.5225882,62.5943182 60.2699412,63.3465909 C61.0037059,64.0852273 62.0250882,64.5068182 63.0668529,64.5068182 C64.1086176,64.5068182 65.1266029,64.0852273 65.8637647,63.3465909 C66.6111176,62.5965909 67.0300882,61.575 67.0300882,60.5295455 C67.0300882,59.4829545 66.6111176,58.4613636 65.8637647,57.7204545 C64.37925,56.2318182 61.742,56.2431818 60.2699412,57.7204545 Z" id="Shape"></path>
	</symbol>


	<symbol id="arrow-right-icon" viewBox="0 0 41 24">
		<path d="M0,12.0051432 C0,12.2245875 0.048,12.4440317 0.133714286,12.6531895 C0.216,12.8554897 0.339428571,13.0372169 0.490285714,13.1915137 C0.493714286,13.1983713 0.497142857,13.2052289 0.500571429,13.2120866 L10.7862857,23.4985356 C11.4548571,24.1671548 12.5417143,24.1671548 13.2102857,23.4985356 C13.8788571,22.8299164 13.8788571,21.7429816 13.2102857,21.0743625 L5.85257143,13.7126938 L39.4285714,13.7126938 C40.3748571,13.7126938 41.1428571,12.9446389 41.1428571,11.9982856 C41.1428571,11.0519323 40.3748571,10.2838774 39.4285714,10.2838774 L5.85257143,10.2838774 L13.2102857,2.92563755 C13.8788571,2.25701836 13.8788571,1.17008358 13.2102857,0.50146439 C12.5417143,-0.167154797 11.4548571,-0.167154797 10.7862857,0.50146439 L0.500571429,10.7879134 C0.497142857,10.7913422 0.493714286,10.8016287 0.490285714,10.8050575 C0.339428571,10.9593542 0.216,11.1410815 0.133714286,11.3433817 C0.0445714286,11.5525395 0,11.7754125 0,11.9982856 L0,11.9982856 L0,12.0051432 Z" id="Shape" transform="translate(20.571429, 12.000000) rotate(-180.000000) translate(-20.571429, -12.000000) "></path>
	</symbol>

	<symbol id="arrow-left-icon" viewBox="0 0 41 24">
		<path d="M0,12.0051432 C0,12.2245875 0.048,12.4440317 0.133714286,12.6531895 C0.216,12.8554897 0.339428571,13.0372169 0.490285714,13.1915137 C0.493714286,13.1983713 0.497142857,13.2052289 0.500571429,13.2120866 L10.7862857,23.4985356 C11.4548571,24.1671548 12.5417143,24.1671548 13.2102857,23.4985356 C13.8788571,22.8299164 13.8788571,21.7429816 13.2102857,21.0743625 L5.85257143,13.7126938 L39.4285714,13.7126938 C40.3748571,13.7126938 41.1428571,12.9446389 41.1428571,11.9982856 C41.1428571,11.0519323 40.3748571,10.2838774 39.4285714,10.2838774 L5.85257143,10.2838774 L13.2102857,2.92563755 C13.8788571,2.25701836 13.8788571,1.17008358 13.2102857,0.50146439 C12.5417143,-0.167154797 11.4548571,-0.167154797 10.7862857,0.50146439 L0.500571429,10.7879134 C0.497142857,10.7913422 0.493714286,10.8016287 0.490285714,10.8050575 C0.339428571,10.9593542 0.216,11.1410815 0.133714286,11.3433817 C0.0445714286,11.5525395 0,11.7754125 0,11.9982856 L0,11.9982856 L0,12.0051432 Z" id="Shape" transform="translate(20.571429, 12.000000) scale(-1, 1) rotate(-180.000000) translate(-20.571429, -12.000000) "></path>
	</symbol>


	<symbol id="circle" viewBox="0 0 100 100">
	   <circle cx="50" cy="50" r="40"/>
	</symbol>


	<symbol id="home-icon" viewBox="0 0 100 100">
	    <path d="M52.14,13.13c-1.107-0.995-2.785-0.998-3.897-0.009L5.978,50.782c-1.205,1.073-1.312,2.92-0.238,4.125   c0.577,0.648,1.378,0.978,2.182,0.978c0.691,0,1.386-0.244,1.943-0.74l2.475-2.205v32.732c0,1.076,0.872,1.948,1.948,1.948h23.422   c1.076,0,1.948-0.872,1.948-1.948V63.028h20.686v22.643c0,1.076,0.872,1.948,1.948,1.948h23.422c1.076,0,1.948-0.872,1.948-1.948   V52.92l2.465,2.216c1.2,1.079,3.047,0.98,4.126-0.219c1.079-1.2,0.981-3.047-0.219-4.126L52.14,13.13z M83.765,83.723H64.238V61.08   c0-1.076-0.872-1.948-1.948-1.948H37.709c-1.076,0-1.948,0.872-1.948,1.948v22.643H16.235V49.468l33.943-30.245l33.586,30.195   V83.723z"/>
		    
	</symbol>


	<symbol id="logo">
		
		<g id="Symbols" stroke="none" stroke-width="1" fill="none" fill-rule="evenodd">
		    <g>
		        <g id="Group" transform="translate(5.000000, 3.000000)">
		            <circle id="Oval" fill="#FF993D" style="mix-blend-mode: multiply;" cx="20.6265058" cy="11.038817" r="10.6626537"></circle>
		            <circle id="Oval" fill="#8D7CB2" style="mix-blend-mode: multiply;" cx="11.1452203" cy="27.1570023" r="10.6626537"></circle>
		            <circle id="Oval" fill="#44ADDC" style="mix-blend-mode: multiply;" cx="20.6265058" cy="32.3717094" r="10.6626537"></circle>
		            <circle id="Oval" fill="#27C47E" style="mix-blend-mode: multiply;" cx="29.6337271" cy="27.1570023" r="10.6626537"></circle>
		            <circle id="Oval" fill="#F9E200" style="mix-blend-mode: multiply;" cx="29.6337271" cy="16.253524" r="10.6626537"></circle>
		            <circle id="Oval" fill="#FA476B" style="mix-blend-mode: multiply;" cx="11.1452203" cy="16.253524" r="10.6626537"></circle>
		        </g>
		        <path d="M55.946,18.256 L58.556,18.256 L62.03,27.886 L65.612,18.256 L68.06,18.256 L62.912,31 L60.95,31 L55.946,18.256 Z M73.5740381,29.812 L73.5200381,29.812 C73.2080365,30.3040025 72.8120405,30.6609989 72.3320381,30.883 C71.8520357,31.1050011 71.324041,31.216 70.7480381,31.216 C70.3520361,31.216 69.96504,31.1620005 69.5870381,31.054 C69.2090362,30.9459995 68.8730396,30.7840011 68.5790381,30.568 C68.2850366,30.3519989 68.048039,30.0820016 67.8680381,29.758 C67.6880372,29.4339984 67.5980381,29.0560022 67.5980381,28.624 C67.5980381,28.1559977 67.6820373,27.7570016 67.8500381,27.427 C68.0180389,27.0969983 68.2430367,26.8210011 68.5250381,26.599 C68.8070395,26.3769989 69.1340362,26.2000007 69.5060381,26.068 C69.87804,25.9359993 70.2650361,25.8370003 70.6670381,25.771 C71.0690401,25.7049997 71.4740361,25.6630001 71.8820381,25.645 C72.2900401,25.6269999 72.6740363,25.618 73.0340381,25.618 L73.5740381,25.618 L73.5740381,25.384 C73.5740381,24.8439973 73.38804,24.4390013 73.0160381,24.169 C72.6440362,23.8989986 72.170041,23.764 71.5940381,23.764 C71.1380358,23.764 70.7120401,23.8449992 70.3160381,24.007 C69.9200361,24.1690008 69.5780395,24.3879986 69.2900381,24.664 L68.1560381,23.53 C68.6360405,23.0379975 69.1970349,22.6840011 69.8390381,22.468 C70.4810413,22.2519989 71.1440347,22.144 71.8280381,22.144 C72.4400412,22.144 72.956036,22.2129993 73.3760381,22.351 C73.7960402,22.4890007 74.1440367,22.6659989 74.4200381,22.882 C74.6960395,23.0980011 74.9090374,23.3469986 75.0590381,23.629 C75.2090389,23.9110014 75.3170378,24.1959986 75.3830381,24.484 C75.4490384,24.7720014 75.488038,25.0509987 75.5000381,25.321 C75.5120382,25.5910013 75.5180381,25.827999 75.5180381,26.032 L75.5180381,31 L73.5740381,31 L73.5740381,29.812 Z M73.4480381,27.13 L72.9980381,27.13 C72.6980366,27.13 72.36204,27.1419999 71.9900381,27.166 C71.6180362,27.1900001 71.2670398,27.2469995 70.9370381,27.337 C70.6070365,27.4270005 70.3280392,27.5589991 70.1000381,27.733 C69.872037,27.9070009 69.7580381,28.1499984 69.7580381,28.462 C69.7580381,28.666001 69.8030377,28.8369993 69.8930381,28.975 C69.9830386,29.1130007 70.1000374,29.2299995 70.2440381,29.326 C70.3880388,29.4220005 70.5500372,29.4909998 70.7300381,29.533 C70.910039,29.5750002 71.0900372,29.596 71.2700381,29.596 C72.0140418,29.596 72.5630363,29.4190018 72.9170381,29.065 C73.2710399,28.7109982 73.4480381,28.2280031 73.4480381,27.616 L73.4480381,27.13 Z M77.8100762,17.392 L79.9700762,17.392 L79.9700762,31 L77.8100762,31 L77.8100762,17.392 Z M82.4421143,22.36 L84.6021143,22.36 L84.6021143,31 L82.4421143,31 L82.4421143,22.36 Z M82.1361143,19.426 C82.1361143,19.0779983 82.265113,18.7750013 82.5231143,18.517 C82.7811156,18.2589987 83.1081123,18.13 83.5041143,18.13 C83.9001163,18.13 84.233113,18.2529988 84.5031143,18.499 C84.7731157,18.7450012 84.9081143,19.0539981 84.9081143,19.426 C84.9081143,19.7980019 84.7731157,20.1069988 84.5031143,20.353 C84.233113,20.5990012 83.9001163,20.722 83.5041143,20.722 C83.1081123,20.722 82.7811156,20.5930013 82.5231143,20.335 C82.265113,20.0769987 82.1361143,19.7740017 82.1361143,19.426 Z M93.8601524,29.704 L93.8241524,29.704 C93.5121509,30.2320026 93.0921551,30.6159988 92.5641524,30.856 C92.0361498,31.0960012 91.4661555,31.216 90.8541524,31.216 C90.1821491,31.216 89.585155,31.0990012 89.0631524,30.865 C88.5411498,30.6309988 88.0941543,30.310002 87.7221524,29.902 C87.3501506,29.493998 87.0681534,29.0140028 86.8761524,28.462 C86.6841515,27.9099972 86.5881524,27.3160032 86.5881524,26.68 C86.5881524,26.0439968 86.6901514,25.4500028 86.8941524,24.898 C87.0981534,24.3459972 87.3831506,23.866002 87.7491524,23.458 C88.1151542,23.049998 88.5561498,22.7290012 89.0721524,22.495 C89.588155,22.2609988 90.1521494,22.144 90.7641524,22.144 C91.1721545,22.144 91.5321509,22.1859996 91.8441524,22.27 C92.156154,22.3540004 92.4321512,22.4619993 92.6721524,22.594 C92.9121536,22.7260007 93.1161516,22.8669992 93.2841524,23.017 C93.4521533,23.1670007 93.5901519,23.3139993 93.6981524,23.458 L93.7521524,23.458 L93.7521524,17.392 L95.9121524,17.392 L95.9121524,31 L93.8601524,31 L93.8601524,29.704 Z M88.7481524,26.68 C88.7481524,27.0160017 88.8051518,27.3399984 88.9191524,27.652 C89.033153,27.9640016 89.2011513,28.2399988 89.4231524,28.48 C89.6451535,28.7200012 89.9121509,28.9119993 90.2241524,29.056 C90.536154,29.2000007 90.8901504,29.272 91.2861524,29.272 C91.6821544,29.272 92.0361509,29.2000007 92.3481524,29.056 C92.660154,28.9119993 92.9271513,28.7200012 93.1491524,28.48 C93.3711535,28.2399988 93.5391518,27.9640016 93.6531524,27.652 C93.767153,27.3399984 93.8241524,27.0160017 93.8241524,26.68 C93.8241524,26.3439983 93.767153,26.0200016 93.6531524,25.708 C93.5391518,25.3959984 93.3711535,25.1200012 93.1491524,24.88 C92.9271513,24.6399988 92.660154,24.4480007 92.3481524,24.304 C92.0361509,24.1599993 91.6821544,24.088 91.2861524,24.088 C90.8901504,24.088 90.536154,24.1599993 90.2241524,24.304 C89.9121509,24.4480007 89.6451535,24.6399988 89.4231524,24.88 C89.2011513,25.1200012 89.033153,25.3959984 88.9191524,25.708 C88.8051518,26.0200016 88.7481524,26.3439983 88.7481524,26.68 Z M103.694191,29.812 L103.640191,29.812 C103.328189,30.3040025 102.932193,30.6609989 102.452191,30.883 C101.972188,31.1050011 101.444193,31.216 100.868191,31.216 C100.472189,31.216 100.085192,31.1620005 99.7071905,31.054 C99.3291886,30.9459995 98.993192,30.7840011 98.6991905,30.568 C98.405189,30.3519989 98.1681914,30.0820016 97.9881905,29.758 C97.8081896,29.4339984 97.7181905,29.0560022 97.7181905,28.624 C97.7181905,28.1559977 97.8021897,27.7570016 97.9701905,27.427 C98.1381914,27.0969983 98.3631891,26.8210011 98.6451905,26.599 C98.9271919,26.3769989 99.2541887,26.2000007 99.6261905,26.068 C99.9981924,25.9359993 100.385189,25.8370003 100.787191,25.771 C101.189193,25.7049997 101.594188,25.6630001 102.002191,25.645 C102.410193,25.6269999 102.794189,25.618 103.154191,25.618 L103.694191,25.618 L103.694191,25.384 C103.694191,24.8439973 103.508192,24.4390013 103.136191,24.169 C102.764189,23.8989986 102.290193,23.764 101.714191,23.764 C101.258188,23.764 100.832192,23.8449992 100.436191,24.007 C100.040189,24.1690008 99.698192,24.3879986 99.4101905,24.664 L98.2761905,23.53 C98.7561929,23.0379975 99.3171873,22.6840011 99.9591905,22.468 C100.601194,22.2519989 101.264187,22.144 101.948191,22.144 C102.560194,22.144 103.076188,22.2129993 103.496191,22.351 C103.916193,22.4890007 104.264189,22.6659989 104.540191,22.882 C104.816192,23.0980011 105.02919,23.3469986 105.179191,23.629 C105.329191,23.9110014 105.43719,24.1959986 105.503191,24.484 C105.569191,24.7720014 105.60819,25.0509987 105.620191,25.321 C105.632191,25.5910013 105.638191,25.827999 105.638191,26.032 L105.638191,31 L103.694191,31 L103.694191,29.812 Z M103.568191,27.13 L103.118191,27.13 C102.818189,27.13 102.482192,27.1419999 102.110191,27.166 C101.738189,27.1900001 101.387192,27.2469995 101.057191,27.337 C100.727189,27.4270005 100.448192,27.5589991 100.220191,27.733 C99.9921894,27.9070009 99.8781905,28.1499984 99.8781905,28.462 C99.8781905,28.666001 99.9231901,28.8369993 100.013191,28.975 C100.103191,29.1130007 100.22019,29.2299995 100.364191,29.326 C100.508191,29.4220005 100.67019,29.4909998 100.850191,29.533 C101.030191,29.5750002 101.21019,29.596 101.390191,29.596 C102.134194,29.596 102.683189,29.4190018 103.037191,29.065 C103.391192,28.7109982 103.568191,28.2280031 103.568191,27.616 L103.568191,27.13 Z M106.886229,24.196 L106.886229,22.36 L108.668229,22.36 L108.668229,19.858 L110.828229,19.858 L110.828229,22.36 L113.204229,22.36 L113.204229,24.196 L110.828229,24.196 L110.828229,27.976 C110.828229,28.4080022 110.909228,28.7499987 111.071229,29.002 C111.233229,29.2540013 111.554226,29.38 112.034229,29.38 C112.22623,29.38 112.436227,29.3590002 112.664229,29.317 C112.89223,29.2749998 113.072228,29.2060005 113.204229,29.11 L113.204229,30.928 C112.976227,31.0360005 112.69723,31.1109998 112.367229,31.153 C112.037227,31.1950002 111.74623,31.216 111.494229,31.216 C110.918226,31.216 110.44723,31.1530006 110.081229,31.027 C109.715227,30.9009994 109.42723,30.7090013 109.217229,30.451 C109.007228,30.1929987 108.863229,29.8720019 108.785229,29.488 C108.707228,29.1039981 108.668229,28.6600025 108.668229,28.156 L108.668229,24.196 L106.886229,24.196 Z M116.558267,27.436 C116.630267,28.0840032 116.882265,28.5879982 117.314267,28.948 C117.746269,29.3080018 118.268264,29.488 118.880267,29.488 C119.420269,29.488 119.873265,29.3770011 120.239267,29.155 C120.605269,28.9329989 120.926265,28.6540017 121.202267,28.318 L122.750267,29.488 C122.246264,30.1120031 121.68227,30.5559987 121.058267,30.82 C120.434264,31.0840013 119.78027,31.216 119.096267,31.216 C118.448263,31.216 117.83627,31.1080011 117.260267,30.892 C116.684264,30.6759989 116.186269,30.370002 115.766267,29.974 C115.346265,29.577998 115.013268,29.1010028 114.767267,28.543 C114.521265,27.9849972 114.398267,27.3640034 114.398267,26.68 C114.398267,25.9959966 114.521265,25.3750028 114.767267,24.817 C115.013268,24.2589972 115.346265,23.782002 115.766267,23.386 C116.186269,22.989998 116.684264,22.6840011 117.260267,22.468 C117.83627,22.2519989 118.448263,22.144 119.096267,22.144 C119.69627,22.144 120.245264,22.248999 120.743267,22.459 C121.241269,22.669001 121.667265,22.971998 122.021267,23.368 C122.375268,23.764002 122.651266,24.2529971 122.849267,24.835 C123.047268,25.4170029 123.146267,26.0859962 123.146267,26.842 L123.146267,27.436 L116.558267,27.436 Z M120.986267,25.816 C120.974267,25.1799968 120.776269,24.6790018 120.392267,24.313 C120.008265,23.9469982 119.47427,23.764 118.790267,23.764 C118.142263,23.764 117.629269,23.9499981 117.251267,24.322 C116.873265,24.6940019 116.642267,25.1919969 116.558267,25.816 L120.986267,25.816 Z M125.132305,17.392 L127.292305,17.392 L127.292305,31 L125.132305,31 L125.132305,17.392 Z M128.540343,22.36 L130.916343,22.36 L133.328343,28.354 L133.364343,28.354 L135.524343,22.36 L137.774343,22.36 L133.688343,32.854 C133.532342,33.262002 133.361344,33.6189985 133.175343,33.925 C132.989342,34.2310015 132.770344,34.4889989 132.518343,34.699 C132.266342,34.9090011 131.969345,35.0649995 131.627343,35.167 C131.285341,35.2690005 130.874345,35.32 130.394343,35.32 C129.83034,35.32 129.278346,35.2480007 128.738343,35.104 L129.008343,33.16 C129.176344,33.2200003 129.353342,33.2709998 129.539343,33.313 C129.725344,33.3550002 129.914342,33.376 130.106343,33.376 C130.370344,33.376 130.592342,33.3520002 130.772343,33.304 C130.952344,33.2559998 131.105342,33.1810005 131.231343,33.079 C131.357344,32.9769995 131.462343,32.8450008 131.546343,32.683 C131.630343,32.5209992 131.720342,32.3260011 131.816343,32.098 L132.230343,31.072 L128.540343,22.36 Z" id="Validately" fill="#4C4C4C"></path>
		        <g id="Group" transform="translate(15.789474, 13.815789)">
		            <path d="M9.12138859,11.1704181 C5.36242611,11.0593085 2.09186651,9.00269008 0.281916495,5.97276963 C4.04087897,6.08387925 7.31143857,8.14049763 9.12138859,11.1704181 Z" id="Combined-Shape" fill="#FF993D" style="mix-blend-mode: color-burn;"></path>
		            <path d="M9.20526316,11.3133398 C10.1075023,12.8785107 10.6236635,14.6943207 10.6236635,16.6306865 C10.6236635,18.5670524 10.1075023,20.3828624 9.20526316,21.9480333 C8.30302401,20.3828624 7.78686285,18.5670524 7.78686285,16.6306865 C7.78686285,14.6943207 8.30302401,12.8785107 9.20526316,11.3133398 Z" id="Combined-Shape" fill="#8D7CB2" style="mix-blend-mode: multiply;"></path>
		            <path d="M9.28697119,11.1740466 C9.33865775,11.1747846 9.39043328,11.1751549 9.4422953,11.1751549 C13.3370309,11.1751549 16.7440476,9.08698205 18.6048406,5.96914114 C18.5531541,5.96840312 18.5013785,5.96803285 18.4495165,5.96803285 C14.554781,5.96803285 11.1477643,8.05620566 9.28697119,11.1740466 Z" id="Combined-Shape" fill="#FF993D" style="mix-blend-mode: multiply;"></path>
		            <path d="M9.28697119,11.1838482 C9.33865775,11.1831101 9.39043328,11.1827399 9.4422953,11.1827399 C13.3370309,11.1827399 16.7440476,13.2709127 18.6048406,16.3887536 C18.5531541,16.3894916 18.5013785,16.3898619 18.4495165,16.3898619 C14.554781,16.3898619 11.1477643,14.3016891 9.28697119,11.1838482 Z" id="Combined-Shape" fill="#44ADDC" style="mix-blend-mode: multiply;"></path>
		            <path d="M0.281916495,16.3851251 C2.09186651,13.3552047 5.36242611,11.2985863 9.12138859,11.1874767 C7.31143857,14.2173971 4.04087897,16.2740155 0.281916495,16.3851251 Z" id="Combined-Shape" fill="#44ADDC" style="mix-blend-mode: multiply;"></path>
		            <path d="M9.20526316,11.044555 C8.30302401,9.47938406 7.78686285,7.66357408 7.78686285,5.7272082 C7.78686285,3.79084232 8.30302401,1.97503235 9.20526316,0.409861441 C10.1075023,1.97503235 10.6236635,3.79084232 10.6236635,5.7272082 C10.6236635,7.66357408 10.1075023,9.47938406 9.20526316,11.044555 Z" id="Combined-Shape" fill="#F9E200" style="mix-blend-mode: color-burn;"></path>
		        </g>
		    </g>
		</g>

	</symbol>

	<symbol id="heart">
		<path d="M27.1066889,8.42798268 C20.9276474,8.42798268 14.7439047,10.8456798 10.0421339,15.7170565 C0.63823058,25.4599907 0.648898752,41.1125498 10.0421339,50.8634038 L48.6916558,90.9820596 C49.0323403,91.3341772 49.5013224,91.5329849 49.9912742,91.5329849 C50.481226,91.5329849 50.9502081,91.3341772 51.2908926,90.9820596 C64.1841923,77.6236999 77.046934,64.278359 89.9404145,50.9198185 C99.344137,41.1769205 99.344137,25.5165863 89.9404145,15.773652 C80.5365112,6.03071783 65.2152079,6.03053702 55.8113046,15.773652 L49.9911838,21.7631978 L44.1712439,15.7170565 C39.4692922,10.8456798 33.2855495,8.42798268 27.1066889,8.42798268 L27.1066889,8.42798268 Z" id="Shape"></path>
	</symbol>

</svg>