<?xml version="1.0" encoding="UTF-8"?>


<svg xmlns="http://www.w3.org/2000/svg">			
	<symbol id="linkedin" viewBox="0 0 100 100">
		<path d="M0 30.8L23.1 30.8 23.1 100 0 100 0 30.8ZM34.6 30.8L57.7 30.8 57.7 39.2C65 34.8 73.7 30.8 80.8 30.8 96.2 30.8 100 46.2 100 46.2L100 100 76.9 100 76.9 53.8C73.9 44.9 66.3 45.2 57.7 53L57.7 100 34.6 100 34.6 30.8ZM11.5 0C17.9 0 23.1 5.2 23.1 11.5 23.1 17.9 17.9 23.1 11.5 23.1 5.2 23.1 0 17.9 0 11.5 0 5.2 5.2 0 11.5 0Z"/>
	</symbol>

	<symbol id="doc-icon" viewBox="0 0 100 100">
		<path d="M84.3199853,0 L16.5294118,0 C14.0280441,0 12,2.03522727 12,4.54545455 L12,94.5443182 C12,97.0545455 14.0280441,99.0897727 16.5294118,99.0897727 L84.3199853,99.0897727 C86.8213529,99.0897727 88.8493971,97.0545455 88.8493971,94.5443182 L88.8493971,4.54545455 C88.8493971,2.03522727 86.8213529,0 84.3199853,0 Z M79.7905735,89.9988636 L21.0588235,89.9988636 L21.0588235,9.09090909 L79.7905735,9.09090909 L79.7905735,89.9988636 Z" id="Shape"></path>
		<path d="M35.7001471,64.5090909 L49.05625,64.5090909 C51.2450882,64.5090909 53.0194853,62.7272727 53.0194853,60.5318182 C53.0194853,58.3329545 51.2450882,56.5545455 49.05625,56.5545455 L35.7001471,56.5545455 C33.5113088,56.5545455 31.7369118,58.3329545 31.7369118,60.5318182 C31.7369118,62.7261364 33.5113088,64.5090909 35.7001471,64.5090909 Z" id="Shape"></path>
		<path d="M36.3274706,46.6568182 L63.2208529,46.6568182 C65.4108235,46.6568182 67.1840882,44.8761364 67.1840882,42.6795455 C67.1840882,40.4829545 65.4108235,38.7022727 63.2208529,38.7022727 L36.3274706,38.7022727 C34.1386324,38.7022727 32.3642353,40.4829545 32.3642353,42.6795455 C32.3642353,44.8761364 34.1397647,46.6568182 36.3274706,46.6568182 Z" id="Shape"></path>
		<path d="M36.3274706,28.8045455 L63.2208529,28.8045455 C65.4108235,28.8045455 67.1840882,27.0238636 67.1840882,24.8272727 C67.1840882,22.6306818 65.4108235,20.85 63.2208529,20.85 L36.3274706,20.85 C34.1386324,20.85 32.3642353,22.6306818 32.3642353,24.8272727 C32.3642353,27.0238636 34.1397647,28.8045455 36.3274706,28.8045455 Z" id="Shape"></path>
		<path d="M60.2699412,57.7204545 C59.5225882,58.4579545 59.1036176,59.4829545 59.1036176,60.5295455 C59.1036176,61.575 59.5225882,62.5943182 60.2699412,63.3465909 C61.0037059,64.0852273 62.0250882,64.5068182 63.0668529,64.5068182 C64.1086176,64.5068182 65.1266029,64.0852273 65.8637647,63.3465909 C66.6111176,62.5965909 67.0300882,61.575 67.0300882,60.5295455 C67.0300882,59.4829545 66.6111176,58.4613636 65.8637647,57.7204545 C64.37925,56.2318182 61.742,56.2431818 60.2699412,57.7204545 Z" id="Shape"></path>
	</symbol>


	<symbol id="arrow-right-icon" viewBox="0 0 41 24">
		<path d="M0,12.0051432 C0,12.2245875 0.048,12.4440317 0.133714286,12.6531895 C0.216,12.8554897 0.339428571,13.0372169 0.490285714,13.1915137 C0.493714286,13.1983713 0.497142857,13.2052289 0.500571429,13.2120866 L10.7862857,23.4985356 C11.4548571,24.1671548 12.5417143,24.1671548 13.2102857,23.4985356 C13.8788571,22.8299164 13.8788571,21.7429816 13.2102857,21.0743625 L5.85257143,13.7126938 L39.4285714,13.7126938 C40.3748571,13.7126938 41.1428571,12.9446389 41.1428571,11.9982856 C41.1428571,11.0519323 40.3748571,10.2838774 39.4285714,10.2838774 L5.85257143,10.2838774 L13.2102857,2.92563755 C13.8788571,2.25701836 13.8788571,1.17008358 13.2102857,0.50146439 C12.5417143,-0.167154797 11.4548571,-0.167154797 10.7862857,0.50146439 L0.500571429,10.7879134 C0.497142857,10.7913422 0.493714286,10.8016287 0.490285714,10.8050575 C0.339428571,10.9593542 0.216,11.1410815 0.133714286,11.3433817 C0.0445714286,11.5525395 0,11.7754125 0,11.9982856 L0,11.9982856 L0,12.0051432 Z" id="Shape" transform="translate(20.571429, 12.000000) rotate(-180.000000) translate(-20.571429, -12.000000) "></path>
	</symbol>

	<symbol id="arrow-left-icon" viewBox="0 0 41 24">
		<path d="M0,12.0051432 C0,12.2245875 0.048,12.4440317 0.133714286,12.6531895 C0.216,12.8554897 0.339428571,13.0372169 0.490285714,13.1915137 C0.493714286,13.1983713 0.497142857,13.2052289 0.500571429,13.2120866 L10.7862857,23.4985356 C11.4548571,24.1671548 12.5417143,24.1671548 13.2102857,23.4985356 C13.8788571,22.8299164 13.8788571,21.7429816 13.2102857,21.0743625 L5.85257143,13.7126938 L39.4285714,13.7126938 C40.3748571,13.7126938 41.1428571,12.9446389 41.1428571,11.9982856 C41.1428571,11.0519323 40.3748571,10.2838774 39.4285714,10.2838774 L5.85257143,10.2838774 L13.2102857,2.92563755 C13.8788571,2.25701836 13.8788571,1.17008358 13.2102857,0.50146439 C12.5417143,-0.167154797 11.4548571,-0.167154797 10.7862857,0.50146439 L0.500571429,10.7879134 C0.497142857,10.7913422 0.493714286,10.8016287 0.490285714,10.8050575 C0.339428571,10.9593542 0.216,11.1410815 0.133714286,11.3433817 C0.0445714286,11.5525395 0,11.7754125 0,11.9982856 L0,11.9982856 L0,12.0051432 Z" id="Shape" transform="translate(20.571429, 12.000000) scale(-1, 1) rotate(-180.000000) translate(-20.571429, -12.000000) "></path>
	</symbol>


	<symbol id="circle" viewBox="0 0 100 100">
	   <circle cx="50" cy="50" r="40"/>
	</symbol>


	<symbol id="home-icon" viewBox="0 0 100 100">
	    <path d="M52.14,13.13c-1.107-0.995-2.785-0.998-3.897-0.009L5.978,50.782c-1.205,1.073-1.312,2.92-0.238,4.125   c0.577,0.648,1.378,0.978,2.182,0.978c0.691,0,1.386-0.244,1.943-0.74l2.475-2.205v32.732c0,1.076,0.872,1.948,1.948,1.948h23.422   c1.076,0,1.948-0.872,1.948-1.948V63.028h20.686v22.643c0,1.076,0.872,1.948,1.948,1.948h23.422c1.076,0,1.948-0.872,1.948-1.948   V52.92l2.465,2.216c1.2,1.079,3.047,0.98,4.126-0.219c1.079-1.2,0.981-3.047-0.219-4.126L52.14,13.13z M83.765,83.723H64.238V61.08   c0-1.076-0.872-1.948-1.948-1.948H37.709c-1.076,0-1.948,0.872-1.948,1.948v22.643H16.235V49.468l33.943-30.245l33.586,30.195   V83.723z"/>
		    
	</symbol>


	<symbol id="logo">
		
		<g id="Group" transform="translate(10.000000, 7.000000)">
		    <g id="Group-Copy">
		        <polygon id="Rectangle" fill="#861C24" points="16.0258621 4.79403131 27.3821081 2.38888889 28.1269682 14.8373534 16.6100531 18.3011869"></polygon>
		        <polygon id="Rectangle-Copy-3" fill="#00B157" points="18.8836207 21.5491393 24.853576 16.6666667 25.5072929 28.7988485 19.8181687 34.9241642"></polygon>
		        <polygon id="Rectangle-Copy-6" fill="#00A8BF" points="24.8631035 16.763865 22.6766652 16.4807491 28.1351465 14.8135452 32.3567294 14.2885324 32.4924176 26.0734425 25.4051161 27.0492177"></polygon>
		        <polygon id="Rectangle-Copy" fill="#FF4F61" points="9.30172414 2.44737163 20.2351782 0 27.4905543 2.46114482 16.1373114 4.89474326"></polygon>
		        <polygon id="Path-3" fill="#FFF062" points="6.80941076 9.4528192 15.9640406 10.9479908 11.0940539 15.6490393 0.078143743 13.7816925"></polygon>
		        <polygon id="Rectangle-Copy-2" fill="#FF3746" points="9.31527439 2.40043217 16.1531349 4.84479873 16.6406153 18.1757494 9.98385509 14.4675044"></polygon>
		        <polygon id="Path-2" fill="#00E0FF" points="29.2189536 10.598197 32.3665122 14.2880067 28.1255653 14.8252427 27.8672275 10.747032"></polygon>
		        <polygon id="Rectangle-Copy-7" fill="#FFCB00" points="0 13.7777778 11.044948 15.6534649 10.7183585 26.8654952 0.760106307 24.6765602"></polygon>
		        <polygon id="Rectangle-Copy-4" fill="#00F076" points="5.71551724 20.5 18.8968997 21.5975604 19.8223548 34.9535913 6.81247455 33.3143307"></polygon>
		        <polygon id="Rectangle-Copy-5" fill="#2CE186" points="11.9029621 15.5243222 16.6413731 18.1768273 22.7115969 16.4530222 24.8159735 16.7625474 18.8779738 21.6468451 5.74794688 20.5232351"></polygon>
		        <polygon id="Path-4" fill="#462013" points="11.067817 15.6518602 11.0290479 16.2893007 11.9239107 15.565617 11.4764793 15.3039083"></polygon>
		    </g>
		    <path d="M54.3205,14.4591349 C53.8524977,13.9651325 53.2935033,13.5751364 52.6435,13.2891349 C51.9934967,13.0031335 51.2395043,12.8601349 50.3815,12.8601349 C49.4974956,12.8601349 48.7045035,13.0226333 48.0025,13.3476349 C47.3004965,13.6726366 46.7057524,14.1081322 46.21825,14.6541349 C45.7307476,15.2001377 45.3570013,15.8338813 45.097,16.5553849 C44.8369987,17.2768885 44.707,18.034131 44.707,18.8271349 C44.707,19.6201389 44.8369987,20.3773813 45.097,21.0988849 C45.3570013,21.8203885 45.7307476,22.4541322 46.21825,23.0001349 C46.7057524,23.5461377 47.3004965,23.9816333 48.0025,24.3066349 C48.7045035,24.6316366 49.4974956,24.7941349 50.3815,24.7941349 C51.0965036,24.7941349 51.7822467,24.7063858 52.43875,24.5308849 C53.0952533,24.3553841 53.6834974,24.1181364 54.2035,23.8191349 L54.2035,19.1976349 L50.908,19.1976349 L50.908,17.9106349 L55.6075,17.9106349 L55.6075,24.6771349 C54.8274961,25.1321372 53.9727546,25.4798837 53.04325,25.7203849 C52.1137454,25.9608861 51.2265042,26.0811349 50.3815,26.0811349 C49.3544949,26.0811349 48.4022544,25.8991368 47.52475,25.5351349 C46.6472456,25.1711331 45.8867532,24.6673882 45.24325,24.0238849 C44.5997468,23.3803817 44.0960018,22.6166394 43.732,21.7326349 C43.3679982,20.8486305 43.186,19.8801402 43.186,18.8271349 C43.186,17.7741297 43.3679982,16.8056394 43.732,15.9216349 C44.0960018,15.0376305 44.5997468,14.2738882 45.24325,13.6303849 C45.8867532,12.9868817 46.6472456,12.4831368 47.52475,12.1191349 C48.4022544,11.7551331 49.3544949,11.5731349 50.3815,11.5731349 C51.4865055,11.5731349 52.438746,11.7258834 53.23825,12.0313849 C54.037754,12.3368865 54.7494969,12.8016318 55.3735,13.4256349 L54.3205,14.4591349 Z M66.6196448,21.1671349 C66.6196448,20.6601324 66.5383956,20.1856371 66.3758948,19.7436349 C66.213394,19.3016327 65.9826463,18.9181366 65.6836448,18.5931349 C65.3846433,18.2681333 65.0238969,18.0113859 64.6013948,17.8228849 C64.1788927,17.634384 63.7011474,17.5401349 63.1681448,17.5401349 C62.6351421,17.5401349 62.1573969,17.634384 61.7348948,17.8228849 C61.3123927,18.0113859 60.9548962,18.2681333 60.6623948,18.5931349 C60.3698933,18.9181366 60.1423956,19.3016327 59.9798948,19.7436349 C59.817394,20.1856371 59.7361448,20.6601324 59.7361448,21.1671349 C59.7361448,21.6741375 59.817394,22.1486327 59.9798948,22.5906349 C60.1423956,23.0326371 60.3698933,23.4161333 60.6623948,23.7411349 C60.9548962,24.0661366 61.3123927,24.322884 61.7348948,24.5113849 C62.1573969,24.6998859 62.6351421,24.7941349 63.1681448,24.7941349 C63.7011474,24.7941349 64.1788927,24.6998859 64.6013948,24.5113849 C65.0238969,24.322884 65.3846433,24.0661366 65.6836448,23.7411349 C65.9826463,23.4161333 66.213394,23.0326371 66.3758948,22.5906349 C66.5383956,22.1486327 66.6196448,21.6741375 66.6196448,21.1671349 Z M68.0236448,21.1671349 C68.0236448,21.8561384 67.903396,22.493132 67.6628948,23.0781349 C67.4223936,23.6631379 67.0876469,24.1701328 66.6586448,24.5991349 C66.2296426,25.0281371 65.7193977,25.3628837 65.1278948,25.6033849 C64.5363918,25.8438861 63.8831484,25.9641349 63.1681448,25.9641349 C62.4661413,25.9641349 61.8193977,25.8438861 61.2278948,25.6033849 C60.6363918,25.3628837 60.1261469,25.0281371 59.6971448,24.5991349 C59.2681426,24.1701328 58.933396,23.6631379 58.6928948,23.0781349 C58.4523936,22.493132 58.3321448,21.8561384 58.3321448,21.1671349 C58.3321448,20.4781315 58.4523936,19.8411379 58.6928948,19.2561349 C58.933396,18.671132 59.2681426,18.1641371 59.6971448,17.7351349 C60.1261469,17.3061328 60.6363918,16.9713861 61.2278948,16.7308849 C61.8193977,16.4903837 62.4661413,16.3701349 63.1681448,16.3701349 C63.8831484,16.3701349 64.5363918,16.4903837 65.1278948,16.7308849 C65.7193977,16.9713861 66.2296426,17.3061328 66.6586448,17.7351349 C67.0876469,18.1641371 67.4223936,18.671132 67.6628948,19.2561349 C67.903396,19.8411379 68.0236448,20.4781315 68.0236448,21.1671349 Z M79.9522896,15.1611349 C79.445287,14.6151322 78.9545419,14.2511358 78.4800396,14.0691349 C78.0055372,13.887134 77.527792,13.7961349 77.0467896,13.7961349 C76.331786,13.7961349 75.6850425,13.9228837 75.1065396,14.1763849 C74.5280367,14.4298862 74.0307916,14.7808827 73.6147896,15.2293849 C73.1987875,15.6778872 72.8770407,16.2011319 72.6495396,16.7991349 C72.4220384,17.3971379 72.3082896,18.0406315 72.3082896,18.7296349 C72.3082896,19.4706386 72.4220384,20.1531318 72.6495396,20.7771349 C72.8770407,21.4011381 73.1987875,21.9406327 73.6147896,22.3956349 C74.0307916,22.8506372 74.5280367,23.2081336 75.1065396,23.4681349 C75.6850425,23.7281362 76.331786,23.8581349 77.0467896,23.8581349 C77.6057924,23.8581349 78.1485369,23.7248863 78.6750396,23.4583849 C79.2015422,23.1918836 79.6922873,22.7661379 80.1472896,22.1811349 L82.1752896,23.6241349 C81.5512864,24.4821392 80.7907941,25.106133 79.8937896,25.4961349 C78.9967851,25.8861369 78.0412946,26.0811349 77.0272896,26.0811349 C75.9612842,26.0811349 74.983044,25.9088867 74.0925396,25.5643849 C73.2020351,25.2198832 72.4350428,24.7323881 71.7915396,24.1018849 C71.1480364,23.4713818 70.6442914,22.7141394 70.2802896,21.8301349 C69.9162877,20.9461305 69.7342896,19.9646403 69.7342896,18.8856349 C69.7342896,17.7806294 69.9162877,16.7763895 70.2802896,15.8728849 C70.6442914,14.9693804 71.1480364,14.1991381 71.7915396,13.5621349 C72.4350428,12.9251317 73.2020351,12.4343867 74.0925396,12.0898849 C74.983044,11.7453832 75.9612842,11.5731349 77.0272896,11.5731349 C77.9632942,11.5731349 78.8310356,11.7388833 79.6305396,12.0703849 C80.4300436,12.4018866 81.1742861,12.964131 81.8632896,13.7571349 L79.9522896,15.1611349 Z M83.5934344,16.3701349 L85.9334344,16.3701349 L85.9334344,17.8521349 L85.9724344,17.8521349 C86.2324357,17.3061322 86.6029319,16.8836364 87.0839344,16.5846349 C87.5649368,16.2856334 88.1174312,16.1361349 88.7414344,16.1361349 C88.8844351,16.1361349 89.0241837,16.1491348 89.1606844,16.1751349 C89.297185,16.2011351 89.4369336,16.2336347 89.5799344,16.2726349 L89.5799344,18.5346349 C89.3849334,18.4826347 89.1931853,18.4403851 89.0046844,18.4078849 C88.8161834,18.3753848 88.6309353,18.3591349 88.4489344,18.3591349 C87.9029316,18.3591349 87.464186,18.4598839 87.1326844,18.6613849 C86.8011827,18.8628859 86.5476852,19.0936336 86.3721844,19.3536349 C86.1966835,19.6136362 86.0796846,19.8736336 86.0211844,20.1336349 C85.9626841,20.3936362 85.9334344,20.5886343 85.9334344,20.7186349 L85.9334344,25.7301349 L83.5934344,25.7301349 L83.5934344,16.3701349 Z M92.6750791,21.8691349 C92.7530795,22.5711384 93.0260768,23.117133 93.4940791,23.5071349 C93.9620815,23.8971369 94.5275758,24.0921349 95.1905791,24.0921349 C95.7755821,24.0921349 96.2663272,23.9718861 96.6628291,23.7313849 C97.0593311,23.4908837 97.4070776,23.1886368 97.7060791,22.8246349 L99.3830791,24.0921349 C98.8370764,24.7681383 98.2260825,25.2491335 97.5500791,25.5351349 C96.8740758,25.8211364 96.1655828,25.9641349 95.4245791,25.9641349 C94.7225756,25.9641349 94.0595823,25.8471361 93.4355791,25.6131349 C92.811576,25.3791338 92.2720814,25.0476371 91.8170791,24.6186349 C91.3620769,24.1896328 91.0013305,23.672888 90.7348291,23.0683849 C90.4683278,22.4638819 90.3350791,21.7911386 90.3350791,21.0501349 C90.3350791,20.3091312 90.4683278,19.636388 90.7348291,19.0318849 C91.0013305,18.4273819 91.3620769,17.9106371 91.8170791,17.4816349 C92.2720814,17.0526328 92.811576,16.7211361 93.4355791,16.4871349 C94.0595823,16.2531338 94.7225756,16.1361349 95.4245791,16.1361349 C96.0745824,16.1361349 96.6693264,16.2498838 97.2088291,16.4773849 C97.7483318,16.7048861 98.2098272,17.0331328 98.5933291,17.4621349 C98.9768311,17.8911371 99.2758281,18.4208818 99.4903291,19.0513849 C99.7048302,19.6818881 99.8120791,20.4066308 99.8120791,21.2256349 L99.8120791,21.8691349 L92.6750791,21.8691349 Z M97.4720791,20.1141349 C97.4590791,19.4251315 97.2445812,18.8823869 96.8285791,18.4858849 C96.4125771,18.089383 95.8340828,17.8911349 95.0930791,17.8911349 C94.3910756,17.8911349 93.8353312,18.0926329 93.4258291,18.4956349 C93.0163271,18.8986369 92.7660796,19.4381316 92.6750791,20.1141349 L97.4720791,20.1141349 Z M107.821224,24.4431349 L107.762724,24.4431349 C107.424722,24.9761376 106.995727,25.3628837 106.475724,25.6033849 C105.955721,25.8438861 105.383727,25.9641349 104.759724,25.9641349 C104.330722,25.9641349 103.911476,25.9056355 103.501974,25.7886349 C103.092472,25.6716343 102.728476,25.4961361 102.409974,25.2621349 C102.091472,25.0281338 101.834725,24.7356367 101.639724,24.3846349 C101.444723,24.0336332 101.347224,23.6241373 101.347224,23.1561349 C101.347224,22.6491324 101.438223,22.2168867 101.620224,21.8593849 C101.802225,21.5018831 102.045972,21.2028861 102.351474,20.9623849 C102.656975,20.7218837 103.011222,20.5301356 103.414224,20.3871349 C103.817226,20.2441342 104.236472,20.1368853 104.671974,20.0653849 C105.107476,19.9938846 105.546222,19.948385 105.988224,19.9288849 C106.430226,19.9093848 106.846222,19.8996349 107.236224,19.8996349 L107.821224,19.8996349 L107.821224,19.6461349 C107.821224,19.061132 107.619726,18.6223864 107.216724,18.3298849 C106.813722,18.0373835 106.300227,17.8911349 105.676224,17.8911349 C105.182221,17.8911349 104.720726,17.9788841 104.291724,18.1543849 C103.862722,18.3298858 103.492225,18.5671334 103.180224,18.8661349 L101.951724,17.6376349 C102.471727,17.1046323 103.07947,16.7211361 103.774974,16.4871349 C104.470477,16.2531338 105.18872,16.1361349 105.929724,16.1361349 C106.592727,16.1361349 107.151722,16.2108842 107.606724,16.3603849 C108.061726,16.5098857 108.438722,16.7016338 108.737724,16.9356349 C109.036725,17.1696361 109.267473,17.4393834 109.429974,17.7448849 C109.592475,18.0503865 109.709474,18.3591334 109.780974,18.6711349 C109.852474,18.9831365 109.894724,19.2853835 109.907724,19.5778849 C109.920724,19.8703864 109.927224,20.1271338 109.927224,20.3481349 L109.927224,25.7301349 L107.821224,25.7301349 L107.821224,24.4431349 Z M107.684724,21.5376349 L107.197224,21.5376349 C106.872222,21.5376349 106.508226,21.5506348 106.105224,21.5766349 C105.702222,21.6026351 105.321976,21.6643844 104.964474,21.7618849 C104.606972,21.8593854 104.304725,22.002384 104.057724,22.1908849 C103.810723,22.3793859 103.687224,22.6426332 103.687224,22.9806349 C103.687224,23.201636 103.735973,23.3868842 103.833474,23.5363849 C103.930974,23.6858857 104.057723,23.8126344 104.213724,23.9166349 C104.369725,24.0206355 104.545223,24.0953847 104.740224,24.1408849 C104.935225,24.1863852 105.130223,24.2091349 105.325224,24.2091349 C106.131228,24.2091349 106.725972,24.0173869 107.109474,23.6338849 C107.492976,23.250383 107.684724,22.7271382 107.684724,22.0641349 L107.684724,21.5376349 Z M111.325869,18.3591349 L111.325869,16.3701349 L113.256369,16.3701349 L113.256369,13.6596349 L115.596369,13.6596349 L115.596369,16.3701349 L118.170369,16.3701349 L118.170369,18.3591349 L115.596369,18.3591349 L115.596369,22.4541349 C115.596369,22.9221373 115.684118,23.2926336 115.859619,23.5656349 C116.03512,23.8386363 116.382866,23.9751349 116.902869,23.9751349 C117.11087,23.9751349 117.338367,23.9523852 117.585369,23.9068849 C117.83237,23.8613847 118.027368,23.7866355 118.170369,23.6826349 L118.170369,25.6521349 C117.923367,25.7691355 117.62112,25.8503847 117.263619,25.8958849 C116.906117,25.9413852 116.59087,25.9641349 116.317869,25.9641349 C115.693866,25.9641349 115.183621,25.8958856 114.787119,25.7593849 C114.390617,25.6228843 114.07862,25.4148863 113.851119,25.1353849 C113.623618,24.8558835 113.467619,24.508137 113.383119,24.0921349 C113.298618,23.6761329 113.256369,23.1951377 113.256369,22.6491349 L113.256369,18.3591349 L111.325869,18.3591349 Z M121.850513,21.8691349 C121.928514,22.5711384 122.201511,23.117133 122.669513,23.5071349 C123.137516,23.8971369 123.70301,24.0921349 124.366013,24.0921349 C124.951016,24.0921349 125.441762,23.9718861 125.838263,23.7313849 C126.234765,23.4908837 126.582512,23.1886368 126.881513,22.8246349 L128.558513,24.0921349 C128.012511,24.7681383 127.401517,25.2491335 126.725513,25.5351349 C126.04951,25.8211364 125.341017,25.9641349 124.600013,25.9641349 C123.89801,25.9641349 123.235017,25.8471361 122.611013,25.6131349 C121.98701,25.3791338 121.447516,25.0476371 120.992513,24.6186349 C120.537511,24.1896328 120.176765,23.672888 119.910263,23.0683849 C119.643762,22.4638819 119.510513,21.7911386 119.510513,21.0501349 C119.510513,20.3091312 119.643762,19.636388 119.910263,19.0318849 C120.176765,18.4273819 120.537511,17.9106371 120.992513,17.4816349 C121.447516,17.0526328 121.98701,16.7211361 122.611013,16.4871349 C123.235017,16.2531338 123.89801,16.1361349 124.600013,16.1361349 C125.250017,16.1361349 125.844761,16.2498838 126.384263,16.4773849 C126.923766,16.7048861 127.385262,17.0331328 127.768763,17.4621349 C128.152265,17.8911371 128.451262,18.4208818 128.665763,19.0513849 C128.880265,19.6818881 128.987513,20.4066308 128.987513,21.2256349 L128.987513,21.8691349 L121.850513,21.8691349 Z M126.647513,20.1141349 C126.634513,19.4251315 126.420016,18.8823869 126.004013,18.4858849 C125.588011,18.089383 125.009517,17.8911349 124.268513,17.8911349 C123.56651,17.8911349 123.010766,18.0926329 122.601263,18.4956349 C122.191761,18.8986369 121.941514,19.4381316 121.850513,20.1141349 L126.647513,20.1141349 Z" id="GoCreate" fill="#000000"></path>
		</g>

	</symbol>

	<symbol id="heart">
		<path d="M27.1066889,8.42798268 C20.9276474,8.42798268 14.7439047,10.8456798 10.0421339,15.7170565 C0.63823058,25.4599907 0.648898752,41.1125498 10.0421339,50.8634038 L48.6916558,90.9820596 C49.0323403,91.3341772 49.5013224,91.5329849 49.9912742,91.5329849 C50.481226,91.5329849 50.9502081,91.3341772 51.2908926,90.9820596 C64.1841923,77.6236999 77.046934,64.278359 89.9404145,50.9198185 C99.344137,41.1769205 99.344137,25.5165863 89.9404145,15.773652 C80.5365112,6.03071783 65.2152079,6.03053702 55.8113046,15.773652 L49.9911838,21.7631978 L44.1712439,15.7170565 C39.4692922,10.8456798 33.2855495,8.42798268 27.1066889,8.42798268 L27.1066889,8.42798268 Z" id="Shape"></path>
	</symbol>

</svg>